# xmcd
#
# Track frame offsets:
#	150
#	14607
#	27867
#	42281
#	56356
#	72472
#	87251
#	102647
#	117372
#	131875
#	146561
#	160742
#	175066
#	189802
#	205900
#	217301
#	231341
#	251399
#	266602
#	278636
#	289690
#	302361
#	318911
#	330165
#
# Disc length: 4639 seconds
#
# Revision: 0
# Processed by: cddbd v1.5.1PL0 Copyright (c) Steve Scherf et al.
# Submitted via: audiograbber 1.83.01
#
DISCID=5b121d18
DTITLE=TO DHMOTIKO TRAGOUDI EINAI EDW  мо3 - Cd4
DYEAR=1900
DGENRE=дглотийа
TTITLE0=ламтгки йакалатиамо
TTITLE1=памы се ьгкг яавоука
TTITLE2=аяавыба
TTITLE3=паидиа л'  циати 'сте амакаца
TTITLE4=ма 'ве йаеи о пкатамос
TTITLE5=лиа лекавяоимг
TTITLE6=стгм йемтглемг соу подиа
TTITLE7=амастасиа
TTITLE8=ока та поукайиа
TTITLE9=то пипимг
TTITLE10=пыс то тяибоум то пипеяи
TTITLE11=тяиа паидиа бокиытийа
TTITLE12=о гкиос (СОКО)
TTITLE13=сбаямиаяа (СЭКО)
TTITLE14=г хгба евеи олояжиес
TTITLE15=поукиа лоу диабатаяийа
TTITLE16=папакалпяаима
TTITLE17=то помелемо стгхос лоу
TTITLE18=вояеуоум тайкежтопоука
TTITLE19=йымстамтимиа
TTITLE20=аяцуяоука
TTITLE21=т' амдяоутсоу г лама
TTITLE22=пеяаса апо тгм йаяуа
TTITLE23=ст' амапкиоу то пакалиди
EXTD=
EXTT0=
EXTT1=
EXTT2=
EXTT3=
EXTT4=
EXTT5=
EXTT6=
EXTT7=
EXTT8=
EXTT9=
EXTT10=
EXTT11=
EXTT12=
EXTT13=
EXTT14=
EXTT15=
EXTT16=
EXTT17=
EXTT18=
EXTT19=
EXTT20=
EXTT21=
EXTT22=
EXTT23=
PLAYORDER=
